<svg xmlns="http://www.w3.org/2000/svg" xmlns:xlink="http://www.w3.org/1999/xlink" width="50" zoomAndPan="magnify" viewBox="0 0 37.5 37.499999" height="50" preserveAspectRatio="xMidYMid meet" version="1.2"><defs><clipPath id="da337b3ec8"><path d="M 1.578125 25.851562 L 32.726562 25.851562 L 32.726562 35.523438 L 1.578125 35.523438 Z M 1.578125 25.851562 "/></clipPath><clipPath id="efeac48970"><path d="M 1.640625 14.515625 L 35.113281 14.515625 L 35.113281 33.824219 L 1.640625 33.824219 Z M 1.640625 14.515625 "/></clipPath><clipPath id="3d0b56ef00"><path d="M 1.578125 25.851562 L 32.726562 25.851562 L 32.726562 35.523438 L 1.578125 35.523438 Z M 1.578125 25.851562 "/></clipPath><clipPath id="ae72831d26"><path d="M 1.640625 14.515625 L 35.113281 14.515625 L 35.113281 33.824219 L 1.640625 33.824219 Z M 1.640625 14.515625 "/></clipPath></defs><g id="297b21fc0b"><g clip-rule="nonzero" clip-path="url(#da337b3ec8)"><path style=" stroke:none;fill-rule:nonzero;fill:#1a3c8d;fill-opacity:1;" d="M 32.691406 25.898438 C 29.6875 29.203125 24.214844 34.054688 17.488281 34.6875 C 7.152344 35.664062 1.578125 26.015625 1.578125 26.015625 C 1.578125 26.015625 6.636719 35.941406 17.011719 35.511719 C 23.761719 35.230469 29.484375 30.675781 32.652344 27.53125 L 32.691406 25.898438 "/></g><g clip-rule="nonzero" clip-path="url(#efeac48970)"><path style=" stroke:none;fill-rule:nonzero;fill:#1a3c8d;fill-opacity:1;" d="M 34.46875 21.886719 L 33.546875 14.558594 C 33.546875 14.558594 32.449219 17.550781 30.175781 21 C 27.820312 24.566406 24.203125 28.621094 19.222656 30.371094 C 9.425781 33.808594 1.691406 25.785156 1.691406 25.785156 C 1.691406 25.785156 7.734375 35.148438 18.011719 33.664062 C 24.699219 32.699219 29.925781 27.585938 32.761719 24.136719 L 35.113281 26.988281 L 34.46875 21.886719 "/></g><path style=" stroke:none;fill-rule:nonzero;fill:#0c76bd;fill-opacity:1;" d="M 13.4375 17.652344 L 8.050781 20.71875 L 8.050781 29.457031 C 9.644531 30.027344 11.464844 30.4375 13.4375 30.464844 L 13.4375 17.652344 "/><path style=" stroke:none;fill-rule:nonzero;fill:#ef5c21;fill-opacity:1;" d="M 20.3125 28.894531 L 20.3125 8.804688 L 14.925781 12.367188 L 14.925781 30.410156 C 16.386719 30.285156 17.910156 29.9375 19.472656 29.277344 C 19.757812 29.15625 20.039062 29.027344 20.3125 28.894531 "/><path style=" stroke:none;fill-rule:nonzero;fill:#0c76bd;fill-opacity:1;" d="M 27.300781 23.003906 L 27.300781 0 L 21.917969 3.222656 L 21.917969 27.992188 C 24.054688 26.636719 25.835938 24.863281 27.300781 23.003906 "/><g clip-rule="nonzero" clip-path="url(#3d0b56ef00)"><path style=" stroke:none;fill-rule:nonzero;fill:#1a3c8d;fill-opacity:1;" d="M 32.691406 25.898438 C 29.6875 29.203125 24.214844 34.054688 17.488281 34.6875 C 7.152344 35.664062 1.578125 26.015625 1.578125 26.015625 C 1.578125 26.015625 6.636719 35.941406 17.011719 35.511719 C 23.761719 35.230469 29.484375 30.675781 32.652344 27.53125 L 32.691406 25.898438 "/></g><g clip-rule="nonzero" clip-path="url(#ae72831d26)"><path style=" stroke:none;fill-rule:nonzero;fill:#1a3c8d;fill-opacity:1;" d="M 34.46875 21.886719 L 33.546875 14.558594 C 33.546875 14.558594 32.449219 17.550781 30.175781 21 C 27.820312 24.566406 24.203125 28.621094 19.222656 30.371094 C 9.425781 33.808594 1.691406 25.785156 1.691406 25.785156 C 1.691406 25.785156 7.734375 35.148438 18.011719 33.664062 C 24.699219 32.699219 29.925781 27.585938 32.761719 24.136719 L 35.113281 26.988281 L 34.46875 21.886719 "/></g><path style=" stroke:none;fill-rule:nonzero;fill:#0c76bd;fill-opacity:1;" d="M 13.4375 17.652344 L 8.050781 20.71875 L 8.050781 29.457031 C 9.644531 30.027344 11.464844 30.4375 13.4375 30.464844 L 13.4375 17.652344 "/><path style=" stroke:none;fill-rule:nonzero;fill:#ef5c21;fill-opacity:1;" d="M 20.3125 28.894531 L 20.3125 8.804688 L 14.925781 12.367188 L 14.925781 30.410156 C 16.386719 30.285156 17.910156 29.9375 19.472656 29.277344 C 19.757812 29.15625 20.039062 29.027344 20.3125 28.894531 "/><path style=" stroke:none;fill-rule:nonzero;fill:#0c76bd;fill-opacity:1;" d="M 27.300781 23.003906 L 27.300781 0 L 21.917969 3.222656 L 21.917969 27.992188 C 24.054688 26.636719 25.835938 24.863281 27.300781 23.003906 "/></g></svg>